<?xml version="1.0" encoding="UTF-8"?>
<svg version="1.1" xmlns="http://www.w3.org/2000/svg" width="1024" height="1024">
<path d="M0 0 C337.92 0 675.84 0 1024 0 C1024 337.92 1024 675.84 1024 1024 C686.08 1024 348.16 1024 0 1024 C0 686.08 0 348.16 0 0 Z " fill="#123040" transform="translate(0,0)"/>
<path d="M0 0 C1.74022526 -0.00418207 3.48044778 -0.00966434 5.22066534 -0.01631981 C9.96179497 -0.03067797 14.70274935 -0.02656013 19.44388819 -0.019153 C24.57277174 -0.01439977 29.70161855 -0.02694995 34.83049011 -0.03717041 C44.86126405 -0.05432003 54.89197524 -0.05520663 64.92276002 -0.04995751 C73.07733165 -0.04590843 81.23188479 -0.0473681 89.38645554 -0.05270576 C91.13041754 -0.0538284 91.13041754 -0.0538284 92.9096111 -0.05497371 C95.27181059 -0.05650525 97.63401007 -0.0580436 99.99620955 -0.05958868 C122.12022515 -0.07329912 144.24420535 -0.06788563 166.36822014 -0.05640347 C186.59551388 -0.04646636 206.82271621 -0.05942262 227.04999585 -0.08333766 C247.84164118 -0.10773404 268.63324393 -0.11733558 289.42490327 -0.11068493 C301.0890884 -0.10719473 312.75320319 -0.10941205 324.41737747 -0.12693596 C334.34347072 -0.14166438 344.26944405 -0.1422846 354.19553496 -0.12486505 C359.25644076 -0.11635922 364.31713239 -0.11419559 369.37802696 -0.1295166 C374.01664218 -0.14338518 378.65486018 -0.13857267 383.29345255 -0.11927737 C384.96549784 -0.11552382 386.63757511 -0.11842059 388.30959184 -0.12888902 C402.55400704 -0.21168535 415.21855949 1.63182123 426.3008728 11.38768005 C429.3008728 14.92953027 429.3008728 14.92953027 429.3008728 17.38768005 C429.9608728 17.38768005 430.6208728 17.38768005 431.3008728 17.38768005 C431.3008728 18.04768005 431.3008728 18.70768005 431.3008728 19.38768005 C431.9608728 19.38768005 432.6208728 19.38768005 433.3008728 19.38768005 C435.53978422 24.83894265 436.77693574 29.51958499 437.3008728 35.38768005 C437.9608728 35.38768005 438.6208728 35.38768005 439.3008728 35.38768005 C439.3008728 173.32768005 439.3008728 311.26768005 439.3008728 453.38768005 C438.6408728 453.38768005 437.9808728 453.38768005 437.3008728 453.38768005 C437.3936853 454.84174255 437.3936853 454.84174255 437.4883728 456.32518005 C437.4883728 465.88582563 432.3639863 473.43728166 426.3008728 480.38768005 C425.7439978 481.08893005 425.1871228 481.79018005 424.6133728 482.51268005 C421.56797843 484.98191874 418.34008369 486.08854075 414.6836853 487.44236755 C412.18236341 488.34127342 412.18236341 488.34127342 409.7383728 490.07518005 C403.11424949 493.64201569 393.67263336 492.52558097 386.32699585 492.50120544 C385.16167831 492.50135147 383.99636078 492.5014975 382.79573059 492.50164795 C378.96799822 492.50095485 375.14031536 492.49318908 371.31259155 492.4853363 C368.64460671 492.48346951 365.97662455 492.48199755 363.30863953 492.48104858 C357.01673709 492.47795043 350.7248522 492.46975955 344.43295747 492.45969909 C337.28129094 492.44851148 330.12962357 492.44301741 322.97795045 492.43800366 C308.86596159 492.42799559 294.75398565 492.4115521 280.64200878 492.39047337 C278.52829809 492.3879514 276.414585 492.38768005 274.3008728 492.38768005 C273.25866577 492.37027771 273.25866577 492.37027771 272.19540405 492.3525238 C270.23069479 492.32672087 268.26548753 492.35547325 266.3008728 492.38768005 C265.9708728 492.71768005 265.6408728 493.04768005 265.3008728 493.38768005 C262.8008728 493.51268005 262.8008728 493.51268005 260.3008728 493.38768005 C259.9708728 493.05768005 259.6408728 492.72768005 259.3008728 492.38768005 C257.80788432 492.29357325 256.3104309 492.26947498 254.81448364 492.27301216 C253.83920873 492.27287121 252.86393381 492.27273026 251.85910511 492.27258503 C250.77480056 492.27754423 249.69049601 492.28250344 248.57333374 492.28761292 C246.86035992 492.28950632 246.86035992 492.28950632 245.11278057 492.29143798 C241.92855204 492.29590504 238.74437095 492.30485798 235.56015849 492.31559157 C232.1312121 492.3260406 228.7022578 492.33069914 225.27330017 492.33592224 C219.32558347 492.34565176 213.37788152 492.3587001 207.43017578 492.37364578 C198.0266492 492.39698281 188.62312159 492.41001033 179.21957397 492.42134094 C176.00373834 492.42534289 172.78790279 492.42941156 169.57206726 492.43350029 C168.76827501 492.43451952 167.96448276 492.43553875 167.13633317 492.43658886 C157.97877466 492.44834085 148.82121979 492.46221583 139.66366577 492.47703552 C138.82622932 492.47838796 137.98879286 492.47974039 137.12597954 492.4811338 C123.56856905 492.50329297 110.0111835 492.53315857 96.45379281 492.56500293 C82.53762176 492.59741031 68.62146373 492.61826731 54.70525932 492.6292752 C46.12109977 492.63649545 37.53706309 492.6531857 28.95294863 492.68207596 C23.06501316 492.70109789 17.1771266 492.70916067 11.28916067 492.70867099 C7.89357061 492.70873392 4.49832719 492.71532174 1.10275459 492.73183823 C-2.58354491 492.74901983 -6.26939462 492.74764634 -9.95571899 492.74171448 C-11.02217777 492.75113512 -12.08863655 492.76055577 -13.18741226 492.77026188 C-18.90657783 492.73950868 -23.60210055 492.11519396 -28.94791889 490.03148353 C-30.70102122 489.27266181 -30.70102122 489.27266181 -32.6991272 489.38768005 C-32.6991272 488.39768005 -32.6991272 487.40768005 -32.6991272 486.38768005 C-33.5860022 486.34643005 -34.4728772 486.30518005 -35.3866272 486.26268005 C-39.95713565 485.05537593 -41.03518863 483.22688563 -43.6991272 479.38768005 C-43.6991272 478.72768005 -43.6991272 478.06768005 -43.6991272 477.38768005 C-44.6891272 477.05768005 -45.6791272 476.72768005 -46.6991272 476.38768005 C-48.38272095 474.3056488 -48.38272095 474.3056488 -50.1366272 471.57518005 C-51.0009436 470.26613708 -51.0009436 470.26613708 -51.88272095 468.9306488 C-57.42758785 458.11517724 -58.27694714 448.0978674 -58.20706177 436.20117188 C-58.21167765 434.48003311 -58.21803516 432.7588983 -58.22597075 431.03777164 C-58.24259303 426.33541694 -58.23445014 421.63338901 -58.22202587 416.93103349 C-58.21294844 411.84912671 -58.22695849 406.76727479 -58.23794556 401.68537903 C-58.25570704 391.74039985 -58.25190123 381.79554162 -58.24029499 371.85055775 C-58.23125111 363.76551412 -58.23004081 355.68050432 -58.23439026 347.59545708 C-58.23500319 346.44351072 -58.23561612 345.29156436 -58.23624763 344.10471053 C-58.23752657 341.76433444 -58.23882342 339.42395835 -58.24013799 337.08358227 C-58.25153698 315.15127701 -58.23844103 293.21903869 -58.21693653 271.28674441 C-58.19906857 252.48140753 -58.20216852 233.67616944 -58.22061157 214.87083435 C-58.2420344 193.01704929 -58.2504359 171.16332287 -58.23816252 149.30952877 C-58.23688836 146.97759212 -58.23563088 144.64565546 -58.23439026 142.3137188 C-58.23377316 141.16645392 -58.23315605 140.01918905 -58.23252025 138.83715858 C-58.22907142 130.76545385 -58.23488569 122.69378643 -58.24430847 114.62208748 C-58.25554562 104.78008984 -58.25245239 94.93821975 -58.2311855 85.09623665 C-58.22069787 80.07788606 -58.21651418 75.05974786 -58.2297821 70.041399 C-58.24175939 65.44151478 -58.23505597 60.84203851 -58.2138719 56.24219095 C-58.20942833 54.58419072 -58.21162118 52.92615555 -58.22137505 51.26817805 C-58.30608656 35.66358358 -55.7125477 22.96334725 -44.6991272 11.38768005 C-31.88286741 0.00360976 -16.21349743 -0.06417626 0 0 Z " fill="#000101" transform="translate(325.6991271972656,250.61231994628906)"/>
<path d="M0 0 C3 2.0625 3 2.0625 5 4 C5 4.66 5 5.32 5 6 C5.66 6 6.32 6 7 6 C7.66 7.32 8.32 8.64 9 10 C9.74644775 9.9969838 10.49289551 9.99396759 11.26196289 9.99085999 C18.32362648 9.96854226 25.38426375 9.9799381 32.44573975 10.02846622 C36.07560577 10.05224222 39.70455704 10.06333632 43.33447266 10.04467773 C46.84288668 10.02712314 50.34966401 10.04388741 53.85787964 10.08367729 C55.83630052 10.09738806 57.81486473 10.07626957 59.79321289 10.05445862 C65.80681268 10.15048629 69.99206096 10.30273161 74.671875 14.31811523 C75.82014137 15.50910224 76.93170501 16.73678524 78 18 C78.88582764 18.99550621 78.88582764 18.99550621 79.78955078 20.01112366 C80.8960416 21.2683108 81.98862207 22.53781825 83.0703125 23.81640625 C86.13235244 27.28134618 89.45636005 30.47607781 92.765625 33.703125 C94.71799308 35.71010478 96.3873813 37.7172021 98 40 C98.52722656 39.72285156 99.05445313 39.44570313 99.59765625 39.16015625 C102.49228901 37.76226043 105.43995214 36.59840004 108.4375 35.4375 C109.54996094 35.00308594 110.66242188 34.56867188 111.80859375 34.12109375 C123.12443639 30.14600582 138.27924777 30.21244453 149.3984375 34.67578125 C162.98380107 41.5908537 172.35985591 51.89963977 178 66 C195.49 66.33 212.98 66.66 231 67 C231.433125 76.9928125 231.433125 76.9928125 231.875 87.1875 C231.98183105 89.28246826 232.08866211 91.37743652 232.19873047 93.53588867 C232.25732311 95.20483148 232.31362951 96.87385679 232.3671875 98.54296875 C232.4194751 99.40265259 232.4717627 100.26233643 232.52563477 101.14807129 C232.67600402 107.09629888 232.67600402 107.09629888 230.74542236 109.67715454 C228.22470027 111.88104245 226.23301431 112.95720145 222.9375 113.5625 C219.32218892 112.87020639 217.61891584 111.54408967 215 109 C213.50501087 106.01002175 213.88422554 103.29957225 214 100 C214.33 99.01 214.66 98.02 215 97 C215.66 97 216.32 97 217 97 C217 91.72 217 86.44 217 81 C204.79 81 192.58 81 180 81 C180 83.97 180 86.94 180 90 C179.125 93.58203125 179.125 93.58203125 178 96.8125 C176.70518502 100.57555603 176 102.97755126 176 107 C177.43860237 108.66526825 177.43860237 108.66526825 179.4375 110.125 C183.63359495 113.57842328 187.15921414 117.38147793 190.7265625 121.47265625 C192.78792099 123.87890195 192.78792099 123.87890195 194.50889492 125.2773056 C197.71521732 128.0628828 198.89301805 129.45821694 199.74171448 133.75622559 C199.76797639 135.17774251 199.76174699 136.60010762 199.72875977 138.02148438 C199.7344548 138.80276199 199.74014984 139.58403961 199.74601746 140.38899231 C199.75708481 142.95817947 199.72511902 145.52479113 199.69140625 148.09375 C199.68782681 149.88683779 199.68647222 151.67993127 199.6872406 153.47302246 C199.68255571 157.22570163 199.65776615 160.97751828 199.61743164 164.72998047 C199.56646178 169.53182925 199.5549892 174.33273139 199.55726719 179.13481903 C199.55645004 182.83584574 199.53997392 186.53666693 199.51826286 190.23762512 C199.50873981 192.00778144 199.5028093 193.77796095 199.50058174 195.54814148 C199.49405083 198.02533326 199.46773565 200.50153749 199.43579102 202.97851562 C199.43783035 204.06813347 199.43783035 204.06813347 199.43991089 205.17976379 C199.3525741 209.82902989 198.47131598 213.05770072 196 217 C194.34467377 218.01866229 192.67739862 219.01810813 191 220 C189.63988391 221.98188345 188.30208796 223.97951869 187 226 C186.34 226 185.68 226 185 226 C183.64721885 227.98689731 182.31431695 229.98745218 181 232 C180.34 232.33 179.68 232.66 179 233 C177.96854629 234.30915279 176.96457834 235.64082143 176 237 C179.4996961 237.79491941 182.72289975 238.12388764 186.30879211 238.12025452 C187.35902054 238.12162918 188.40924896 238.12300385 189.49130249 238.12442017 C190.63281769 238.12082489 191.77433289 238.11722961 192.95043945 238.11352539 C194.76569878 238.11374443 194.76569878 238.11374443 196.61763 238.1139679 C199.92717032 238.11339145 203.23664793 238.10838317 206.54617715 238.10139394 C210.00817444 238.09513404 213.47017261 238.09455451 216.93217468 238.09336853 C223.48397015 238.09026299 230.03574888 238.08206007 236.58753699 238.07201904 C244.04821 238.06083378 251.50888382 238.05534137 258.96956313 238.05032361 C274.31305176 238.03987681 289.65652372 238.02229242 305 238 C305.86671772 241.16337376 305.99470854 243.4844244 305.5625 246.75 C305.46066406 247.54921875 305.35882812 248.3484375 305.25390625 249.171875 C305.17011719 249.77515625 305.08632813 250.3784375 305 251 C300.90795285 251.7697812 297.04906241 252.12393722 292.88760376 252.12025452 C291.08301697 252.12231651 291.08301697 252.12231651 289.24197388 252.12442017 C287.93574066 252.12082489 286.62950745 252.11722961 285.28369141 252.11352539 C283.88380943 252.11324309 282.4839273 252.11340209 281.08404541 252.1139679 C277.29525229 252.11425419 273.50649099 252.10838456 269.71770525 252.10139394 C265.75389296 252.09513248 261.7900799 252.09455439 257.82626343 252.09336853 C250.32535436 252.09026344 242.8244599 252.08206115 235.32355726 252.07201904 C226.7818656 252.06083236 218.24017324 252.05534101 209.69847608 252.05032361 C192.13230894 252.03987784 174.56615602 252.02229434 157 252 C157.02983221 249.29225454 157.09475128 246.59284231 157.1796875 243.88671875 C157.18444092 243.12774292 157.18919434 242.36876709 157.1940918 241.58679199 C157.42228486 235.6264535 158.90915807 233.02872328 163.125 228.8125 C165.04722371 227.16523677 167.00352252 225.55643754 169 224 C170.35829518 222.83814257 171.71327148 221.67237404 173.0625 220.5 C174.031875 219.675 175.00125 218.85 176 218 C176.66 217.01 177.32 216.02 178 215 C178.99 215 179.98 215 181 215 C181.185625 213.8553125 181.185625 213.8553125 181.375 212.6875 C182 210 182 210 184 207 C184.34010131 203.86729349 184.34010131 203.86729349 184.33813477 200.23706055 C184.34967087 199.55375671 184.36120697 198.87045288 184.37309265 198.16644287 C184.40739426 195.90651153 184.4259002 193.64685322 184.44140625 191.38671875 C184.44830915 190.61364695 184.45521206 189.84057514 184.46232414 189.04407692 C184.49815656 184.95231547 184.521697 180.86069187 184.53540039 176.76879883 C184.55194517 172.54815358 184.61036247 168.3291849 184.67854404 164.1091032 C184.7233831 160.85848654 184.73689867 157.60826976 184.74201775 154.35737038 C184.74990082 152.80200664 184.76951491 151.24665519 184.80124092 149.69159508 C185.26205157 141.33983893 185.26205157 141.33983893 182.48287964 133.76773071 C180.72369489 132.2514362 179.01324771 131.14298884 177 130 C175.31337542 128.35353315 173.64488294 126.68816933 172 125 C170.6078125 123.6696875 170.6078125 123.6696875 169.1875 122.3125 C167 120 167 120 167 118 C164.37842884 119.49804066 162.00589614 120.99505999 159.6875 122.9375 C148.81824725 131.27901955 134.39482161 133.34986574 121 132 C113.4123781 130.45715717 106.46370651 128.30913767 100 124 C100 123.34 100 122.68 100 122 C99.40960938 121.731875 98.81921875 121.46375 98.2109375 121.1875 C87.88668342 115.6423176 82.98348485 103.96355938 79.6640625 93.37109375 C79 90 79 90 79 81 C36.76 81 -5.48 81 -49 81 C-49 76.38 -49 71.76 -49 67 C-6.1 67 36.8 67 81 67 C81.33 65.35 81.66 63.7 82 62 C82.9479589 59.97481509 83.95191959 57.97522846 85 56 C86.00293434 54.00146986 87.00334215 52.00166759 88 50 C87.44054687 49.51273437 86.88109375 49.02546875 86.3046875 48.5234375 C85.50289062 47.81445312 84.70109375 47.10546875 83.875 46.375 C82.52075928 45.20251709 82.52075928 45.20251709 81.13916016 44.00634766 C78.90708866 41.97774667 77.10588083 39.89299224 75.32617188 37.4609375 C70.45892832 31.1688605 66.01316156 26.91043417 57.89892578 25.77197266 C50.80196562 25.23298012 43.73215081 25.41535511 36.625 25.625 C34.13546522 25.64704276 31.64586554 25.662722 29.15625 25.671875 C23.10146645 25.70784768 17.05220275 25.82251238 11 26 C10.71213623 26.91797363 10.71213623 26.91797363 10.41845703 27.85449219 C10.15919434 28.66047852 9.89993164 29.46646484 9.6328125 30.296875 C9.37902832 31.09448242 9.12524414 31.89208984 8.86376953 32.71386719 C6.61420134 38.66778369 2.09108305 42.2615389 -3.4140625 45.078125 C-10.20157686 47.49784311 -16.87123335 46.88131017 -23.375 43.9375 C-29.98098323 40.16265244 -34.19425115 35.22232678 -36.53125 27.9609375 C-38.1034403 21.38394139 -36.63277509 15.09746796 -34 9 C-26.0981939 -2.8416422 -12.83043205 -6.74237782 0 0 Z " fill="#8EA5AE" transform="translate(387,417)"/>
<path d="M0 0 C0.67160156 0.51046875 1.34320312 1.0209375 2.03515625 1.546875 C2.75832031 2.07796875 3.48148438 2.6090625 4.2265625 3.15625 C8.93959088 6.94056008 12.3092406 11.15843709 15.03515625 16.546875 C15.39996094 17.26488281 15.76476562 17.98289062 16.140625 18.72265625 C19.27216789 28.60957986 18.0090817 41.02771789 13.4453125 50.16796875 C8.29937007 58.84907384 0.65006378 64.44918671 -9.125 67.08984375 C-14.70878343 67.9884719 -20.33005373 67.76609594 -25.96484375 67.546875 C-25.96484375 66.886875 -25.96484375 66.226875 -25.96484375 65.546875 C-27.14046875 65.7325 -27.14046875 65.7325 -28.33984375 65.921875 C-36.26199295 65.10234232 -42.60273315 59.71792522 -47.5 53.69140625 C-49.89486261 50.1853274 -51.48488231 46.51079182 -52.96484375 42.546875 C-53.37734375 41.5775 -53.78984375 40.608125 -54.21484375 39.609375 C-56.68119837 29.53842696 -54.45776285 20.35425452 -49.3203125 11.5859375 C-39.41307154 -3.31775063 -15.68388158 -9.84737538 0 0 Z " fill="#020304" transform="translate(534.96484375,467.453125)"/>
<path d="M0 0 C49.83 0 99.66 0 151 0 C151 4.95 151 9.9 151 15 C106.12 15 61.24 15 15 15 C15 50.31 15 85.62 15 122 C8.75020524 118.87510262 3.23937944 115.35470198 0 109 C-2.00855014 100.93407151 -1.28128187 92.31940033 -1.07421875 84.08203125 C-1.05802266 81.92886484 -1.04681483 79.77565501 -1.04064941 77.62243652 C-0.98324203 69.68512568 -0.82966595 61.7487452 -0.6875 53.8125 C-0.460625 36.054375 -0.23375 18.29625 0 0 Z " fill="#EFF2F1" transform="translate(544,322)"/>
<path d="M0 0 C4.62 0 9.24 0 14 0 C14 24.42 14 48.84 14 74 C20.93 74 27.86 74 35 74 C35 49.58 35 25.16 35 0 C39.62 0 44.24 0 49 0 C49 35.97 49 71.94 49 109 C44.38 109 39.76 109 35 109 C35 102.07 35 95.14 35 88 C23.45 88 11.9 88 0 88 C0 58.96 0 29.92 0 0 Z " fill="#E4F0F1" transform="translate(475,322)"/>
<path d="M0 0 C5.71994732 2.25441801 9.22772074 4.45544148 12 10 C29.49 10 46.98 10 65 10 C65 14.62 65 19.24 65 24 C48.83 24 32.66 24 16 24 C15.67 27.63 15.34 31.26 15 35 C11.46301587 40.89497355 6.90566393 46.44454558 0.078125 48.609375 C-7.9469051 50.1178393 -14.84337293 48.89085786 -22 45 C-27.47937156 40.71179617 -31.28610726 33.84362671 -32.30859375 26.90625 C-32.7429849 18.79761511 -29.89448777 12.34385174 -24.4765625 6.30078125 C-17.11368192 -0.18556593 -9.47817578 -1.29909207 0 0 Z " fill="#84A0AC" transform="translate(388,515)"/>
<path d="M0 0 C5.3896271 4.80672234 9.45916505 9.6562414 10.37109375 16.98046875 C10.53174307 24.73888572 9.77391634 30.70460455 5 37 C-1.1694574 43.10251934 -6.14775033 45.07915543 -14.75 45.375 C-21.47358568 45.33359861 -26.7614125 43.22038183 -31.56347656 38.4453125 C-35.23716851 36.2661285 -38.72192498 36.52052094 -42.921875 36.48828125 C-44.21185394 36.46135445 -44.21185394 36.46135445 -45.52789307 36.43388367 C-48.26854584 36.37979962 -51.00902465 36.34589137 -53.75 36.3125 C-55.61070128 36.27932521 -57.47137961 36.2448354 -59.33203125 36.20898438 C-63.88789528 36.12407431 -68.44370788 36.05725416 -73 36 C-73 31.05 -73 26.1 -73 21 C-61.45 21 -49.9 21 -38 21 C-38 18.69 -38 16.38 -38 14 C-35.2689445 6.95511821 -30.57179774 1.65668123 -24 -2 C-15.44205383 -5.30306694 -7.86548662 -4.61376438 0 0 Z " fill="#7D95A1" transform="translate(672,521)"/>
<path d="M0 0 C4.95 0 9.9 0 15 0 C15 29.7 15 59.4 15 90 C23.58 90 32.16 90 41 90 C41 94.95 41 99.9 41 105 C27.8 105 14.6 105 1 105 C-0.15149328 102.69701344 -0.12336988 101.41003902 -0.12025452 98.84921265 C-0.12162918 97.97980545 -0.12300385 97.11039825 -0.12442017 96.21464539 C-0.12082489 95.25870987 -0.11722961 94.30277435 -0.11352539 93.31787109 C-0.11367142 92.31296127 -0.11381744 91.30805145 -0.1139679 90.27268982 C-0.11326929 86.93958402 -0.10547933 83.60653358 -0.09765625 80.2734375 C-0.09579188 77.96701081 -0.09436807 75.66058372 -0.09336853 73.35415649 C-0.08954482 67.27468783 -0.07971576 61.19524294 -0.06866455 55.11578369 C-0.0584473 48.91573407 -0.05387024 42.71568061 -0.04882812 36.515625 C-0.03809338 24.34373954 -0.02101869 12.17187174 0 0 Z " fill="#324E5A" transform="translate(448,564)"/>
<path d="M0 0 C7.0246967 4.07835592 11.13509733 9.29967091 13.76953125 17.02734375 C15.05419268 24.31932674 13.2451832 31.44191679 9.0703125 37.48828125 C4.07807795 43.54957978 -0.09015702 46.43247088 -7.86328125 47.33203125 C-15.62823697 47.6997311 -21.67412686 46.25870957 -27.49609375 40.96875 C-34.2278227 33.78904628 -35.65062983 27.89878292 -35.484375 18.15625 C-34.98897185 12.05135891 -32.58373136 7.38060636 -28.23046875 3.02734375 C-20.17372252 -3.31668853 -9.37469963 -4.28275752 0 0 Z " fill="#E9F0F3" transform="translate(450.23046875,358.97265625)"/>
<path d="M0 0 C4.98362482 5.33131957 7.93686396 11.00835987 8.3125 18.375 C7.91843811 25.90477721 4.8691131 32.21998325 -0.6875 37.3125 C-7.77555638 42.67028138 -14.56773219 44.03354249 -23.3125 42.875 C-30.80071985 40.60647898 -35.38444249 36.55004368 -39.3125 29.875 C-39.87517578 28.95847656 -39.87517578 28.95847656 -40.44921875 28.0234375 C-42.7671703 22.25477981 -41.87842476 14.9056712 -40.25 9.0625 C-35.84970974 1.82331279 -31.24439834 -3.45190047 -22.875 -5.8125 C-13.94333653 -6.90172725 -7.50206874 -4.81264787 0 0 Z " fill="#DAE7EC" transform="translate(613.3125,394.125)"/>
<path d="M0 0 C5.01155241 3.54499347 8.85119887 7.24028722 10.6875 13.25 C11.61402736 21.40344077 10.96138574 27.64498413 7 35 C2.30856478 40.67910579 -3.10117425 44.45220798 -10.4453125 45.2734375 C-17.68462123 45.54781363 -23.08720994 44.30774197 -29 40 C-34.50321368 34.3486667 -37.28397638 28.62657551 -37.3125 20.6875 C-37.17162159 14.11070269 -36.73524301 9.11251791 -32.30078125 4.06640625 C-22.70170418 -5.00462729 -11.4942506 -6.8168457 0 0 Z " fill="#ECF2F5" transform="translate(667,359)"/>
<path d="M0 0 C5.79209521 3.67575273 8.95804885 8.43968886 11 15 C11.91458569 22.08605085 12.08027914 29.14167799 8.25390625 35.39453125 C3.68406898 41.24563131 -2.90237645 45.11462328 -10.2265625 46.38671875 C-16.93674647 46.73052676 -23.65107012 44.83260665 -28.82421875 40.45703125 C-33.40565975 35.41398411 -37.13411308 29.55245909 -37.5 22.625 C-37.16877538 16.02335071 -34.81828612 10.14464517 -30.5625 5.125 C-29.716875 4.42375 -28.87125 3.7225 -28 3 C-27.175 2.278125 -26.35 1.55625 -25.5 0.8125 C-17.56850244 -4.93783573 -8.59600773 -3.99738734 0 0 Z " fill="#415C66" transform="translate(666,584)"/>
<path d="M0 0 C5.73716881 5.73716881 8.08776664 11.04602615 8.44921875 19.21484375 C8.04013683 25.44732711 5.87873084 30.32123979 1.875 35.0625 C1.00875 35.784375 0.1425 36.50625 -0.75 37.25 C-1.24886719 37.70246094 -1.74773437 38.15492188 -2.26171875 38.62109375 C-7.15464507 42.97173101 -10.55480947 43.48394122 -16.8671875 43.4140625 C-19.19958712 43.21082436 -20.72546169 42.39723838 -22.75 41.25 C-23.69875 41.146875 -24.6475 41.04375 -25.625 40.9375 C-31.36602648 39.67447417 -34.45774339 35.96958691 -37.5625 31.25 C-39.32085435 28.22923741 -40.48506037 25.78252845 -40.75 22.25 C-40.87375 21.033125 -40.9975 19.81625 -41.125 18.5625 C-40.99003979 12.04760255 -37.92902994 6.65334184 -33.625 1.90625 C-22.76311471 -8.22172412 -12.10871334 -7.70554486 0 0 Z " fill="#324C56" transform="translate(394.75,611.75)"/>
<path d="M0 0 C38.94 0 77.88 0 118 0 C118 4.95 118 9.9 118 15 C79.06 15 40.12 15 0 15 C0 10.05 0 5.1 0 0 Z " fill="#F2F2F0" transform="translate(338,322)"/>
<path d="M0 0 C4.62 0 9.24 0 14 0 C14 34.65 14 69.3 14 105 C9.38 105 4.76 105 0 105 C0 70.35 0 35.7 0 0 Z " fill="#3A5A67" transform="translate(510,564)"/>
<path d="M0 0 C4.62 0 9.24 0 14 0 C14 22.11 14 44.22 14 67 C9.38 67 4.76 67 0 67 C0 44.89 0 22.78 0 0 Z " fill="#597883" transform="translate(475,564)"/>
<path d="M0 0 C20.13 0 40.26 0 61 0 C61 4.62 61 9.24 61 14 C40.87 14 20.74 14 0 14 C0 9.38 0 4.76 0 0 Z " fill="#A5C3CE" transform="translate(634,484)"/>
<path d="M0 0 C1.21945312 -0.00386719 2.43890625 -0.00773438 3.6953125 -0.01171875 C11.18181465 -0.00418706 18.64583007 0.18494788 26.12630445 0.48905647 C41.41201902 1.10167616 56.66424496 1.24552592 71.96020508 1.19091797 C74.54407661 1.18570566 77.12794921 1.18100147 79.71182251 1.17675781 C85.20889588 1.16718286 90.70595182 1.1541946 96.20301247 1.13903427 C104.89824723 1.11535078 113.59348361 1.10257833 122.28874207 1.09133911 C125.28004559 1.08734119 128.27134901 1.08327226 131.2626524 1.07917976 C132.00941388 1.07816054 132.75617537 1.07714131 133.52556599 1.07609119 C141.96488237 1.0644233 150.40419456 1.05052028 158.84350586 1.03564453 C159.61236733 1.0342921 160.3812288 1.03293967 161.1733891 1.03154625 C173.69579067 1.00925586 186.21816618 0.9793594 198.74054698 0.94767712 C211.65185155 0.91529303 224.56314227 0.89442715 237.47448272 0.88340485 C245.41324368 0.87619676 253.35187144 0.8595484 261.29058345 0.83060409 C267.35603203 0.80936816 273.42139121 0.80375509 279.48688126 0.80397034 C281.97215141 0.80154626 284.45742266 0.793958 286.94265938 0.78084183 C290.33263972 0.76369335 293.72212976 0.76502552 297.11213684 0.77096558 C298.58788208 0.75683461 298.58788208 0.75683461 300.09344035 0.74241817 C305.81038956 0.77596598 309.63341519 1.58351572 314.75 4.125 C316.75 4.45833333 318.75 4.79166667 320.75 5.125 C321.08 5.785 321.41 6.445 321.75 7.125 C323.76669827 8.25850534 323.76669827 8.25850534 325.75 9.125 C325.75 9.785 325.75 10.445 325.75 11.125 C327.4 11.785 329.05 12.445 330.75 13.125 C330.09 13.785 329.43 14.445 328.75 15.125 C328.17894531 14.66609375 327.60789062 14.2071875 327.01953125 13.734375 C326.20871094 13.12078125 325.39789062 12.5071875 324.5625 11.875 C323.78519531 11.27171875 323.00789063 10.6684375 322.20703125 10.046875 C311.34716482 4.00952552 300.25082141 3.54497173 288.16593933 3.60601807 C286.41404736 3.60013279 284.66216054 3.59250053 282.91028291 3.583287 C278.1280985 3.56313131 273.34621252 3.56755319 268.56400526 3.57619452 C263.39509941 3.58115675 258.22626685 3.56303291 253.05738831 3.54777527 C244.11251812 3.52450206 235.16772893 3.515713 226.22282982 3.51688385 C213.29017636 3.51855555 200.35763063 3.49819327 187.42500595 3.47252855 C166.44048773 3.43147988 145.45598894 3.40814284 124.47143555 3.39599609 C104.0921848 3.38416168 83.71297059 3.36395348 63.33374023 3.33251953 C62.07664351 3.33058343 60.81954678 3.32864733 59.52435621 3.32665256 C53.21759617 3.31688774 46.9108364 3.30695867 40.60407674 3.29694796 C-11.68059758 3.21416885 -63.96527345 3.16015597 -116.25 3.125 C-116.25 2.795 -116.25 2.465 -116.25 2.125 C-110.95690644 1.38175517 -105.88487252 1.00579295 -100.52734375 1.02734375 C-99.80085129 1.02880402 -99.07435883 1.03026428 -98.32585144 1.0317688 C-96.76159982 1.03554781 -95.19735236 1.04163531 -93.63311768 1.04983521 C-91.14130803 1.06273921 -88.64955248 1.06915116 -86.15771484 1.07397461 C-79.96398123 1.08726353 -73.77029874 1.11133705 -67.57659912 1.13537598 C-62.34258291 1.15530411 -57.10858697 1.17086736 -51.87454224 1.18093872 C-49.44879459 1.18730629 -47.02313277 1.1998163 -44.59741211 1.21264648 C-35.97990086 1.24074606 -27.44825884 0.98658596 -18.85284424 0.35452271 C-12.57041007 -0.04570589 -6.29410214 -0.01922842 0 0 Z " fill="#2F4D5C" transform="translate(423.25,247.875)"/>
<path d="M0 0 C18.81 0 37.62 0 57 0 C57 4.62 57 9.24 57 14 C38.19 14 19.38 14 0 14 C0 9.38 0 4.76 0 0 Z " fill="#C8DEE1" transform="translate(590,452)"/>
<path d="M0 0 C4.26233903 2.32424983 7.3097666 4.9646499 10 9 C10.72753399 13.91508428 10.50435931 17.93308607 8.375 22.4375 C4.36654838 26.76240833 0.81046375 28.16847204 -5 28.5 C-8.46298281 28.38543516 -10.67759296 28.00859397 -13.4375 25.875 C-16.79680643 22.10602205 -18.68913872 19.08721143 -19.4375 14.0625 C-18.6538459 8.5769213 -16.30414252 5.18282694 -12.3125 1.5625 C-8.00818728 -0.46783619 -4.67023578 -1.06320713 0 0 Z " fill="#B1C3CA" transform="translate(521,485)"/>
<path d="M0 0 C3.20267069 0.82136087 5.448146 2.4168886 7.96484375 4.50390625 C9.70116011 7.97653898 9.56674777 11.71583638 8.96484375 15.50390625 C6.7832523 18.25960072 5.09306881 19.93979372 1.96484375 21.50390625 C-2.11425431 21.88872682 -4.32605498 21.94512482 -7.84765625 19.75390625 C-10.80086752 16.71631751 -11.79637123 14.84707201 -12.53515625 10.69140625 C-11.46621204 3.87688689 -7.04755899 -0.63576828 0 0 Z " fill="#070708" transform="translate(440.03515625,370.49609375)"/>
<path d="M0 0 C2.9375 2.4375 2.9375 2.4375 5 5 C5.33 5.33 5.66 5.66 6 6 C6.41345068 10.21719696 6.24797447 12.53061975 4.25 16.3125 C0.94117647 20.26470588 0.94117647 20.26470588 -2 21 C-4.81708971 21.09312693 -7.3121329 20.87203902 -10 20 C-13.00215566 16.99784434 -14.80004211 14.46635789 -15.375 10.25 C-14.8528401 5.7246142 -13.15770622 4.2328897 -10 1 C-6.78540014 -0.60729993 -3.47611897 -0.61930855 0 0 Z " fill="#080808" transform="translate(658,370)"/>
<path d="M0 0 C2.9091534 1.26484931 4.46015566 2.25450067 6.3125 4.8125 C7.59164839 8.8825176 7.53041759 11.88864886 5.6875 15.75 C3.75607162 18.32523785 2.14752479 19.79585233 -1.0859375 20.37109375 C-5.54279615 20.50038828 -7.3794666 20.49125561 -11 17.625 C-13.90664016 13.81003479 -14.4628138 11.81326348 -14 7 C-10.27334454 0.41624202 -7.46833663 -0.80273868 0 0 Z " fill="#020405" transform="translate(384,530)"/>
<path d="M0 0 C3.51738539 1.02095083 5.4213045 2.96473571 7.96484375 5.5703125 C9.39788439 8.43639379 9.2712853 10.38332033 8.96484375 13.5703125 C7.20825765 16.95336721 5.86563876 19.02509447 2.58984375 21.0078125 C-0.74824562 21.72311736 -2.76561963 21.59204269 -6.03515625 20.5703125 C-9.46825215 18.05270884 -11.30836948 15.82564308 -12.22265625 11.6953125 C-12.44573333 8.24417883 -11.64751292 6.33705894 -9.59765625 3.5703125 C-6.58777783 0.5255167 -4.25518241 -0.37569749 0 0 Z " fill="#070707" transform="translate(598.03515625,402.4296875)"/>
<path d="M0 0 C2.1875 1.1875 2.1875 1.1875 4.1875 4.1875 C4.82829139 8.65068654 4.98249271 12.77033908 2.75 16.75 C-1.02122918 18.86556759 -4.49088631 19.6510641 -8.8125 19.1875 C-11.94190297 17.53839553 -14.21057782 15.39134436 -15.8125 12.1875 C-16.20697548 8.00605989 -16.26285186 5.87803952 -13.9375 2.3125 C-9.84467273 -1.78032727 -5.44361366 -1.5725995 0 0 Z " fill="#030405" transform="translate(379.8125,429.8125)"/>
<path d="M0 0 C2.75329021 1.79562405 4.52627461 3.05254922 6 6 C6.47847852 9.0828553 6.5463489 11.92347221 6 15 C3.39039686 18.19676385 1.94549798 19.69376421 -2.109375 20.33203125 C-4.99426759 20.38993968 -7.39297788 20.30351106 -10 19 C-10 18.34 -10 17.68 -10 17 C-10.66 17 -11.32 17 -12 17 C-14.44605705 13.33091443 -14.83946402 10.26381231 -14 6 C-9.69225128 0.67199501 -6.79813588 -0.57611321 0 0 Z " fill="#030506" transform="translate(662,532)"/>
<path d="M0 0 C2.4375 1.5 2.4375 1.5 4 4 C4.84568734 8.66435798 4.65677655 11.94915752 2.125 16 C-1.12166803 19.05568756 -3.48634347 19.3919175 -7.9609375 19.359375 C-11.38006698 18.7567698 -12.93189052 16.63213933 -15 14 C-16.6626027 10.6747946 -16.34959127 7.3595216 -15.4375 3.8125 C-11.47101337 -1.18872227 -5.772121 -1.63361915 0 0 Z " fill="#020405" transform="translate(659,597)"/>
<path d="M0 0 C2.85746217 1.26998319 4.48137263 2.2838003 6.3125 4.8125 C7.25846855 7.82239992 7.44072275 9.85198036 7 13 C4.98856388 16.33144108 3.70334511 18.30746955 0.09765625 19.7734375 C-2.95340177 20.39419019 -5.04015047 20.52957215 -7.8125 19 C-10.00455326 17.22949545 -11.73303323 15.53393354 -13 13 C-13.39447548 8.81855989 -13.45035186 6.69053952 -11.125 3.125 C-7.53413571 -0.46586429 -5.00759994 -0.3394983 0 0 Z " fill="#010203" transform="translate(382,621)"/>
<path d="M0 0 C59.07 0 118.14 0 179 0 C178.67 0.66 178.34 1.32 178 2 C80 2 80 2 77.89453125 1.96484375 C75.92982198 1.93904081 73.96461472 1.9677932 72 2 C71.67 2.33 71.34 2.66 71 3 C68.5 3.125 68.5 3.125 66 3 C65.505 2.505 65.505 2.505 65 2 C62.97505769 1.90590521 60.9468013 1.88256878 58.91967773 1.88647461 C57.61840439 1.88655014 56.31713104 1.88662567 54.97642517 1.88670349 C53.54548098 1.89181091 52.11453718 1.89702692 50.68359375 1.90234375 C49.2277074 1.90420797 47.77182043 1.90563185 46.31593323 1.90663147 C42.47720621 1.91045635 38.63851681 1.92028636 34.79980469 1.93133545 C30.88542184 1.94155022 26.97103294 1.94612923 23.05664062 1.95117188 C15.37107657 1.96190866 7.68554355 1.97898471 0 2 C0 1.34 0 0.68 0 0 Z " fill="#071114" transform="translate(520,741)"/>
<path d="M0 0 C3.46145669 0.86536417 4.94931405 2.62635769 6.9375 5.484375 C7.53610081 9.07597985 7.19053004 10.92770891 5.6875 14.234375 C3.78363263 16.68220448 2.91442549 17.65745125 -0.0625 18.484375 C-3.85075503 18.34908018 -6.29434073 17.97678479 -9.5 15.921875 C-11.32030968 13.0821919 -11.69901403 10.82421397 -11.50390625 7.45703125 C-10.16097405 1.45543158 -5.56745827 -0.37959943 0 0 Z " fill="#EDF1F1" transform="translate(397.0625,349.515625)"/>
<path d="M0 0 C3.47035034 2.4079982 4.74502985 3.80164032 5.625 7.9375 C4.74931432 12.22835983 3.28826203 14.12277073 0 17 C-2.85444748 17.81144575 -5.13727226 17.75608333 -8 17 C-10.99380345 15.00413103 -12.63808488 13.61740829 -13.44140625 10.02734375 C-13.63331226 6.71541745 -13.21310447 4.37061647 -11.5625 1.5 C-7.73473876 -0.74064073 -4.32011646 -0.8840096 0 0 Z " fill="#D0E0E4" transform="translate(364,384)"/>
<path d="M0 0 C2.9375 1.4375 2.9375 1.4375 5 4 C5.71069254 7.14900355 5.69816628 9.84959677 5 13 C3.0625 15.625 3.0625 15.625 0 17 C-3.20110951 17.26770845 -5.93958344 16.98207397 -9 16 C-12.05714746 13.39023997 -12.85514021 11.88726622 -13.5 7.9375 C-12.88967138 4.35181933 -11.80986461 3.23136307 -9 1 C-5.89951072 -0.55024464 -3.42105782 -0.28992015 0 0 Z " fill="#CFE0E8" transform="translate(645,416)"/>
<path d="M0 0 C3.5060303 0.86943897 4.94966563 2.56083702 6.9375 5.48046875 C7.5625 8.98046875 7.5625 8.98046875 6.9375 12.48046875 C4.875 15.41796875 4.875 15.41796875 1.9375 17.48046875 C-2.36524909 18.171982 -4.27195312 17.9960428 -7.9375 15.60546875 C-10.43704287 13.10592588 -10.97206794 12.15870917 -11.4375 8.66796875 C-11.0625 5.48046875 -11.0625 5.48046875 -9.0625 2.60546875 C-5.72064571 0.23832196 -4.00209545 -0.28044987 0 0 Z " fill="#D9E3E5" transform="translate(396.0625,383.51953125)"/>
<path d="M0 0 C2.625 1.5625 2.625 1.5625 4 4 C4.70930433 8.33463758 4.492403 10.25345351 2.0625 13.9375 C-2.03924848 16.69990204 -5.18941423 16.93339724 -10 16 C-12.5625 14.5625 -12.5625 14.5625 -14 12 C-14.30784654 8.96849426 -14.23343187 6.03461426 -14 3 C-13.34 3 -12.68 3 -12 3 C-12 2.34 -12 1.68 -12 1 C-8.29695733 -0.85152133 -4.04231745 -0.45639068 0 0 Z " fill="#E9EFF1" transform="translate(616,354)"/>
<path d="M0 0 C4.08048338 0.39235417 5.52096457 1.27157481 8.25 4.3125 C9.4159741 8.32053597 9.68240501 10.36532711 7.9375 14.1875 C6.06443138 16.546179 5.1824572 17.18649227 2.2265625 17.5859375 C-4.09122783 17.85879888 -4.09122783 17.85879888 -7.3125 15.1875 C-9.01523868 11.78202264 -9.45338515 10.06388748 -8.75 6.3125 C-6.3125 3.5 -6.3125 3.5 -3.75 1.3125 C-2.75 0.3125 -2.75 0.3125 0 0 Z " fill="#BECFD5" transform="translate(423.75,455.6875)"/>
<path d="M0 0 C0.33 0.66 0.66 1.32 1 2 C44.23 2 87.46 2 132 2 C132 6.95 132 11.9 132 17 C129.03 17 126.06 17 123 17 C123 16.67 123 16.34 123 16 C124.98 16 126.96 16 129 16 C129 12.04 129 8.08 129 4 C127.41559616 4.00666183 125.83119232 4.01332367 124.19877625 4.02018738 C109.29226813 4.08091195 94.38580529 4.12611102 79.47920513 4.15543652 C71.81494369 4.17091459 64.1507745 4.19202196 56.48657227 4.22631836 C49.80753116 4.25619207 43.12855685 4.27556816 36.44945079 4.28226548 C32.91190722 4.28618122 29.37455477 4.29540297 25.83707237 4.31719017 C21.89093786 4.34129777 17.94499142 4.3419713 13.9987793 4.34057617 C12.82202133 4.351362 11.64526337 4.36214783 10.43284607 4.3732605 C8.82376373 4.36707451 8.82376373 4.36707451 7.18217468 4.36076355 C6.24839839 4.36352893 5.3146221 4.36629431 4.35254955 4.36914349 C1.5894425 3.93557856 0.71423042 3.15344215 -1 1 C-0.67 0.67 -0.34 0.34 0 0 Z " fill="#1B2F36" transform="translate(563,652)"/>
<path d="M0 0 C2.375 1.5625 2.375 1.5625 4 4 C4.7099846 8.9698922 4.79117716 10.84919686 1.9375 15 C-1 17 -1 17 -4.5 17.6875 C-8 17 -8 17 -10.9375 14.375 C-13.18591175 10.69578077 -13.80478766 9.20277998 -13 5 C-9.39029112 -0.60127241 -6.42177988 -1.70373752 0 0 Z " fill="#6B838E" transform="translate(614,575)"/>
<path d="M0 0 C3.52744682 0.85916031 4.973663 2.54444741 6.97265625 5.48046875 C7.76046905 9.89222045 7.50240758 11.70239649 4.97265625 15.41796875 C0.82185311 18.27164591 -1.05745155 18.19045335 -6.02734375 17.48046875 C-8.52734375 15.98046875 -8.52734375 15.98046875 -10.02734375 13.48046875 C-10.61386179 8.86163922 -10.60077034 6.62732193 -8.52734375 2.48046875 C-5.66601138 0.19140286 -3.66131403 -0.25321237 0 0 Z " fill="#D2E1E8" transform="translate(678.02734375,415.51953125)"/>
<path d="M0 0 C4.63235294 2.26470588 4.63235294 2.26470588 6 5 C6.69064748 12.13669065 6.69064748 12.13669065 4 15.5 C-0.14685318 17.57342659 -2.38117047 17.58651804 -7 17 C-9.5 15.5625 -9.5 15.5625 -11 13 C-11.60303852 9.8699429 -11.65919094 7.12399182 -11 4 C-7.7470039 0.07726941 -4.98888545 -0.7275458 0 0 Z " fill="#B2CDD8" transform="translate(675,449)"/>
<path d="M0 0 C2.88381579 2.58803981 3.8491179 4.19529549 4.5625 8 C3.78809054 12.13018381 2.34638613 13.50801033 -1 16 C-4.5 17.125 -4.5 17.125 -8 17 C-10.98170781 15.03334166 -12.64103498 13.59330089 -13.4453125 10.0234375 C-13.64560282 6.45826977 -13.30796547 4.40035512 -11.125 1.5625 C-7.09518909 -1.40059626 -4.89516833 -1.18159236 0 0 Z " fill="#68808B" transform="translate(399,577)"/>
<path d="M0 0 C3.44347346 0.92335075 4.94574523 2.65638377 6.9375 5.51953125 C7.6821324 9.49090406 7.31016878 10.96052808 5.0625 14.33203125 C2.56730912 16.90061009 1.65580363 17.42375743 -1.875 17.89453125 C-5.0625 17.51953125 -5.0625 17.51953125 -7.875 15.39453125 C-10.3449743 12.14827932 -11.22903634 10.59967167 -11.0625 6.51953125 C-8.18128299 1.5006371 -5.8938189 -0.47998904 0 0 Z " fill="#55717D" transform="translate(426.0625,595.48046875)"/>
<path d="M0 0 C2.5 1.4375 2.5 1.4375 4 4 C4.60318106 7.13079693 4.65375511 9.87459178 4 13 C1.33120085 16.31578076 -0.31607564 16.89008359 -4.5 17.5625 C-8 17 -8 17 -10.9375 14.875 C-13 12 -13 12 -13.5 9 C-12.94506497 5.67038979 -12.00503147 3.69908083 -10 1 C-6.78897726 -0.60551137 -3.48300792 -0.46807221 0 0 Z " fill="#3F5964" transform="translate(429,634)"/>
<path d="M0 0 C3.31522441 0.58439705 4.42324204 1.05947491 7.0625 3.3125 C8.78643863 6.6854234 9.19987322 8.39234282 8.5 12.125 C6.50366611 14.99472996 5.02770117 16.77710765 1.52734375 17.57421875 C-1.8195592 17.75563966 -4.12896551 17.34762069 -7 15.625 C-9.09709563 12.12984062 -9.23453802 9.03738143 -8.5 5.125 C-6.43483939 0.72531 -4.69508386 -0.25525168 0 0 Z " fill="#416170" transform="translate(609.5,609.875)"/>
<path d="M0 0 C2.5625 1.5 2.5625 1.5 4 4 C4.78383251 8.02642386 4.67145236 10.95253431 2.4375 14.4375 C-0.83565762 16.53567796 -3.11417724 17 -7 17 C-9.9375 15.6875 -9.9375 15.6875 -12 13 C-12.69827381 8.93006124 -13.21034919 4.71937456 -10.74609375 1.21875 C-7.473951 -1.06516172 -3.81026298 -0.5983626 0 0 Z " fill="#6C8287" transform="translate(364,577)"/>
<path d="M0 0 C4.95 0 9.9 0 15 0 C15 4.95 15 9.9 15 15 C10.05 15 5.1 15 0 15 C0 10.05 0 5.1 0 0 Z " fill="#55707C" transform="translate(543,597)"/>
<path d="M0 0 C4.62 0 9.24 0 14 0 C14 4.95 14 9.9 14 15 C9.38 15 4.76 15 0 15 C0 10.05 0 5.1 0 0 Z " fill="#8099A5" transform="translate(544,564)"/>
<path d="M0 0 C4.62 0 9.24 0 14 0 C14 4.95 14 9.9 14 15 C9.38 15 4.76 15 0 15 C0 10.05 0 5.1 0 0 Z " fill="#F0F1F1" transform="translate(571,355)"/>
<path d="M0 0 C5.28 0 10.56 0 16 0 C16 4.29 16 8.58 16 13 C10.72 13 5.44 13 0 13 C0 8.71 0 4.42 0 0 Z " fill="#879CA7" transform="translate(418,562)"/>
<path d="M0 0 C4.62 0 9.24 0 14 0 C14 4.62 14 9.24 14 14 C9.38 14 4.76 14 0 14 C0 9.38 0 4.76 0 0 Z " fill="#F8F9F9" transform="translate(354,355)"/>
<path d="M0 0 C20.13 0 40.26 0 61 0 C61 4.62 61 9.24 61 14 C60.34 14 59.68 14 59 14 C59 10.04 59 6.08 59 2 C39.86 2 20.72 2 1 2 C1 5.96 1 9.92 1 14 C0.67 14 0.34 14 0 14 C0 9.38 0 4.76 0 0 Z " fill="#B6C8CD" transform="translate(634,484)"/>
<path d="M0 0 C20.13 0 40.26 0 61 0 C61.66 1.32 62.32 2.64 63 4 C62.01 3.67 61.02 3.34 60 3 C58.05283354 2.88324185 56.10206523 2.82330075 54.15161133 2.79467773 C52.9505928 2.77473251 51.74957428 2.75478729 50.51216125 2.73423767 C49.21521835 2.71752518 47.91827545 2.70081268 46.58203125 2.68359375 C45.2410977 2.66301707 43.90017054 2.64202041 42.55924988 2.62062073 C39.03298111 2.56547373 35.50665452 2.51603206 31.98028564 2.46777344 C28.38068507 2.4175045 24.78116827 2.36184661 21.18164062 2.30664062 C14.12116648 2.19914929 7.06061718 2.09768435 0 2 C0 1.34 0 0.68 0 0 Z " fill="#D1E0E3" transform="translate(396,428)"/>
<path d="M0 0 C0.33 0 0.66 0 1 0 C1 11.22 1 22.44 1 34 C1.66 34 2.32 34 3 34 C2.91621094 35.27617188 2.83242188 36.55234375 2.74609375 37.8671875 C2.64293768 39.53644035 2.54008901 41.20571221 2.4375 42.875 C2.38142578 43.71675781 2.32535156 44.55851563 2.26757812 45.42578125 C2.21923828 46.23144531 2.17089844 47.03710938 2.12109375 47.8671875 C2.0739624 48.61081543 2.02683105 49.35444336 1.97827148 50.12060547 C1.86421725 52.09247077 1.86421725 52.09247077 3 54 C3.81445912 66.65252768 3.81445912 66.65252768 1 72 C-1.125 73.375 -1.125 73.375 -3 74 C-2.67657623 73.48189758 -2.35315247 72.96379517 -2.01992798 72.42999268 C-0.67686121 69.23011731 -0.71859775 66.59005788 -0.68115234 63.12011719 C-0.67110672 62.43678314 -0.6610611 61.7534491 -0.65071106 61.04940796 C-0.61990602 58.79857192 -0.60285171 56.54785469 -0.5859375 54.296875 C-0.56722366 52.73316426 -0.54765008 51.1694636 -0.5272522 49.60577393 C-0.47594767 45.49591006 -0.43631305 41.38601345 -0.39910889 37.27600098 C-0.35905867 33.07975173 -0.30797098 28.88363844 -0.2578125 24.6875 C-0.16107311 16.45842625 -0.07666206 8.22928516 0 0 Z " fill="#4F646E" transform="translate(572,554)"/>
<path d="M0 0 C0 0.99 0 1.98 0 3 C-2 5 -2 5 -3.94838905 5.24609566 C-4.75034895 5.24425207 -5.55230885 5.24240849 -6.37857056 5.24050903 C-7.75840874 5.24463303 -7.75840874 5.24463303 -9.16612244 5.24884033 C-10.17816238 5.24164978 -11.19020233 5.23445923 -12.23291016 5.22705078 C-13.82805702 5.22748886 -13.82805702 5.22748886 -15.45542908 5.22793579 C-18.98338884 5.22653835 -22.51113947 5.21095756 -26.0390625 5.1953125 C-28.48000981 5.19158385 -30.92095862 5.18873618 -33.36190796 5.18673706 C-39.7965099 5.17908899 -46.23102201 5.15943041 -52.66558838 5.1373291 C-59.22756739 5.11689594 -65.78956087 5.10774076 -72.3515625 5.09765625 C-85.2344134 5.07618564 -98.11720193 5.04241826 -111 5 C-111 4.67 -111 4.34 -111 4 C-75.36 4 -39.72 4 -3 4 C-3 3.01 -3 2.02 -3 1 C-2.01 0.67 -1.02 0.34 0 0 Z " fill="#ACB5B8" transform="translate(471,480)"/>
<path d="M0 0 C17.16 0 34.32 0 52 0 C52 3.63 52 7.26 52 11 C51.67 11 51.34 11 51 11 C51 8.03 51 5.06 51 2 C49.81035645 2.03552979 48.62071289 2.07105957 47.39501953 2.10766602 C42.94092522 2.23897997 38.48662871 2.36179869 34.03222656 2.48217773 C32.11191473 2.53523304 30.19166333 2.59052885 28.27148438 2.64819336 C25.49622633 2.73113376 22.7208439 2.80575757 19.9453125 2.87890625 C18.67749435 2.91945885 18.67749435 2.91945885 17.38406372 2.96083069 C11.51763071 3.1045865 5.82399547 2.70668759 0 2 C0 1.34 0 0.68 0 0 Z " fill="#BDCBD0" transform="translate(566,484)"/>
<path d="M0 0 C4.62 0 9.24 0 14 0 C14 6.6 14 13.2 14 20 C13.67 20 13.34 20 13 20 C13 14.06 13 8.12 13 2 C9.7 2 6.4 2 3 2 C3.01047363 3.03930664 3.02094727 4.07861328 3.03173828 5.14941406 C3.06797936 9.01086981 3.09091541 12.87231057 3.10986328 16.73388672 C3.1199115 18.40415985 3.13355236 20.07441542 3.15087891 21.74462891 C3.17517926 24.14750504 3.18649487 26.55014827 3.1953125 28.953125 C3.20563507 29.69806213 3.21595764 30.44299927 3.22659302 31.21051025 C3.22740368 34.96927642 3.10367118 37.81173711 1 41 C-0.04049084 27.32497747 -0.10360226 13.71003285 0 0 Z " fill="#688591" transform="translate(448,564)"/>
<path d="M0 0 C0.33 0.66 0.66 1.32 1 2 C1.99 1.67 2.98 1.34 4 1 C5.55643549 0.98446183 7.11400687 1.03201313 8.66796875 1.12109375 C10.00698242 1.19360352 10.00698242 1.19360352 11.37304688 1.26757812 C12.76620117 1.35168945 12.76620117 1.35168945 14.1875 1.4375 C15.59805664 1.51581055 15.59805664 1.51581055 17.03710938 1.59570312 C19.35841501 1.72531918 21.67928409 1.86028181 24 2 C24 2.33 24 2.66 24 3 C23.15236084 2.99214478 23.15236084 2.99214478 22.28759766 2.98413086 C19.7334097 2.96337578 17.17923947 2.9503446 14.625 2.9375 C13.73554688 2.92912109 12.84609375 2.92074219 11.9296875 2.91210938 C11.07890625 2.90888672 10.228125 2.90566406 9.3515625 2.90234375 C8.56604004 2.89710693 7.78051758 2.89187012 6.97119141 2.88647461 C4.92227332 2.87426047 4.92227332 2.87426047 3 4 C2.67 6.64 2.34 9.28 2 12 C11.24 12 20.48 12 30 12 C30 12.33 30 12.66 30 13 C19.96868172 13.72955042 10.06351843 14.10482832 0 14 C0 9.38 0 4.76 0 0 Z " fill="#A0B8C0" transform="translate(338,484)"/>
<path d="M0 0 C4.62 0 9.24 0 14 0 C14 6.6 14 13.2 14 20 C13.67 20 13.34 20 13 20 C11.87137825 14.63904667 11.90311779 9.44693314 12 4 C11.01 3.67 10.02 3.34 9 3 C8.01 2.34 7.02 1.68 6 1 C5.67 1.66 5.34 2.32 5 3 C4.01 3 3.02 3 2 3 C1.67 10.59 1.34 18.18 1 26 C0.67 26 0.34 26 0 26 C0 17.42 0 8.84 0 0 Z " fill="#718890" transform="translate(475,564)"/>
<path d="M0 0 C4.62 0 9.24 0 14 0 C14 6.27 14 12.54 14 19 C13.67 19 13.34 19 13 19 C13 14.05 13 9.1 13 4 C12.34 4 11.68 4 11 4 C11 3.01 11 2.02 11 1 C9.0509375 1.185625 9.0509375 1.185625 7.0625 1.375 C6.33160156 1.44460938 5.60070312 1.51421875 4.84765625 1.5859375 C4.23792969 1.72257813 3.62820313 1.85921875 3 2 C1.573479 4.853042 1.92438601 7.24884041 1.97265625 10.43359375 C1.98490234 11.72201172 1.99714844 13.01042969 2.00976562 14.33789062 C2.03458832 16.38981839 2.06256672 18.44160113 2.09594727 20.4934082 C2.12615912 22.47335524 2.14333376 24.45348769 2.16015625 26.43359375 C2.17699463 27.62009521 2.19383301 28.80659668 2.21118164 30.02905273 C2 33 2 33 0 36 C0 24.12 0 12.24 0 0 Z " fill="#5C7580" transform="translate(510,564)"/>
<path d="M0 0 C0 0.66 0 1.32 0 2 C-0.94359375 1.85691406 -0.94359375 1.85691406 -1.90625 1.7109375 C-7.90896989 0.93347679 -12.23686121 1.14407395 -18 3 C-18.94875 3.28875 -19.8975 3.5775 -20.875 3.875 C-23.45692121 5.24189946 -23.76041308 6.43818704 -25 9 C-27.125 9.75 -27.125 9.75 -29 10 C-27.63580749 4.6948069 -24.4717282 2.68107993 -20 0 C-13.71221166 -3.4748304 -6.4573522 -2.64917013 0 0 Z " fill="#5D717B" transform="translate(663,583)"/>
<path d="M0 0 C0.66 0.66 1.32 1.32 2 2 C-0.31 4.64 -2.62 7.28 -5 10 C16.78 10.495 16.78 10.495 39 11 C39 11.33 39 11.66 39 12 C23.49 12 7.98 12 -8 12 C-7.67 10.02 -7.34 8.04 -7 6 C-6.01 6.33 -5.02 6.66 -4 7 C-3.71125 6.401875 -3.4225 5.80375 -3.125 5.1875 C-2 3 -2 3 0 0 Z " fill="#010808" transform="translate(572,642)"/>
<path d="M0 0 C0.66 0 1.32 0 2 0 C-0.01101659 8.61864255 -3.6382857 12.09219047 -10.8125 16.875 C-15.24149732 18.43817552 -19.35138267 18.24804875 -24 18 C-23.67 17.34 -23.34 16.68 -23 16 C-20.9609375 15.76171875 -20.9609375 15.76171875 -18.375 15.6875 C-12.80555458 15.24864685 -10.17837209 13.65607558 -6 10 C-5.34 9.01 -4.68 8.02 -4 7 C-3.34 6.34 -2.68 5.68 -2 5 C-1.29289322 3.35008418 -0.62056011 1.68437744 0 0 Z " fill="#C0CDCF" transform="translate(395,445)"/>
<path d="M0 0 C2.35981813 0.93578995 4.69631264 1.93347808 7 3 C9 3.33333333 11 3.66666667 13 4 C13.33 4.66 13.66 5.32 14 6 C16.01669827 7.13350534 16.01669827 7.13350534 18 8 C18 8.66 18 9.32 18 10 C20.475 10.99 20.475 10.99 23 12 C22.34 12.66 21.68 13.32 21 14 C20.42894531 13.54109375 19.85789062 13.0821875 19.26953125 12.609375 C10.10702732 5.67558824 0.38820693 2.77208183 -11 2 C-7.27632939 -0.48244707 -4.31552256 -0.54143087 0 0 Z " fill="#2D4C5D" transform="translate(731,249)"/>
<path d="M0 0 C22.91449814 -0.81514025 22.91449814 -0.81514025 32 4 C32.495 4.99 32.495 4.99 33 6 C30.125 6.125 30.125 6.125 27 6 C26.34 5.34 25.68 4.68 25 4 C22.34462628 3.43479997 19.70855287 3.26211802 17 3 C17 2.34 17 1.68 17 1 C15.35 1.66 13.7 2.32 12 3 C12 2.34 12 1.68 12 1 C11.34 1 10.68 1 10 1 C9.67 1.66 9.34 2.32 9 3 C9 2.34 9 1.68 9 1 C5.7 1.33 2.4 1.66 -1 2 C-0.67 1.34 -0.34 0.68 0 0 Z " fill="#D0D9DD" transform="translate(507,449)"/>
<path d="M0 0 C0.66 0.66 1.32 1.32 2 2 C1.37867188 1.83757812 0.75734375 1.67515625 0.1171875 1.5078125 C-4.22356252 0.80067277 -8.48474432 0.8557163 -12.875 0.875 C-13.74769531 0.87113281 -14.62039063 0.86726563 -15.51953125 0.86328125 C-20.4536442 0.87070097 -25.13613352 1.16505834 -30 2 C-29.67 1.34 -29.34 0.68 -29 0 C-19.01675909 -3.04215674 -9.96249588 -3.84986039 0 0 Z " fill="#BDC9CC" transform="translate(530,464)"/>
<path d="M0 0 C0.33 0 0.66 0 1 0 C1 11.55 1 23.1 1 35 C-0.32 34.34 -1.64 33.68 -3 33 C-2.67128906 32.51660156 -2.34257813 32.03320312 -2.00390625 31.53515625 C-0.55372704 27.87303055 -0.83524944 24.30944108 -0.9375 20.4375 C-1.03738678 13.5577979 -0.84366933 6.83974777 0 0 Z " fill="#E5F5F4" transform="translate(557,408)"/>
<path d="M0 0 C0.33 0 0.66 0 1 0 C1.08636719 0.67546875 1.17273438 1.3509375 1.26171875 2.046875 C1.92285581 6.24418549 2.4027326 9.23984149 5.0625 12.625 C9.10138658 14.51554265 12.61550802 14.34388172 17 14 C15 17 15 17 13.046875 17.57421875 C9.4248042 17.7528583 6.99800372 17.8165485 4.109375 15.453125 C0.73159835 11.2227057 -0.8897258 7.51370991 -1 2 C-0.67 1.34 -0.34 0.68 0 0 Z " fill="#C0CDD0" transform="translate(363,434)"/>
<path d="M0 0 C4.29 0 8.58 0 13 0 C13 6.27 13 12.54 13 19 C12.67 19 12.34 19 12 19 C12 14.05 12 9.1 12 4 C11.34 4 10.68 4 10 4 C10 3.01 10 2.02 10 1 C4.8306511 1.40556131 4.8306511 1.40556131 0 3 C0 2.01 0 1.02 0 0 Z " fill="#74939E" transform="translate(511,564)"/>
<path d="M0 0 C-2.72056874 1.81371249 -4.97601008 2.83164026 -8 4 C-9.19625 4.556875 -10.3925 5.11375 -11.625 5.6875 C-15 7 -15 7 -18 6 C-13.31096237 1.71870477 -6.32000725 -0.6116136 0 0 Z M-21 6 C-19.515 6.99 -19.515 6.99 -18 8 C-18.99 8 -19.98 8 -21 8 C-21 7.34 -21 6.68 -21 6 Z " fill="#D0DADC" transform="translate(505,451)"/>
<path d="M0 0 C0.33 0.99 0.66 1.98 1 3 C-0.36328125 5.04296875 -0.36328125 5.04296875 -2.3125 7.1875 C-2.94800781 7.90292969 -3.58351563 8.61835937 -4.23828125 9.35546875 C-6 11 -6 11 -8 11 C-6.63629701 8.00779732 -5.05091917 5.70973471 -2.875 3.25 C-2.33617187 2.63640625 -1.79734375 2.0228125 -1.2421875 1.390625 C-0.62730469 0.70226562 -0.62730469 0.70226562 0 0 Z M-11 12 C-10.34 12.33 -9.68 12.66 -9 13 C-9.33 13.66 -9.66 14.32 -10 15 C-10.99 14.67 -11.98 14.34 -13 14 C-12.34 13.34 -11.68 12.68 -11 12 Z M-18 16 C-14 17 -14 17 -14 17 Z " fill="#09171C" transform="translate(758,720)"/>
<path d="M0 0 C0.66 0 1.32 0 2 0 C2.04898437 0.556875 2.09796875 1.11375 2.1484375 1.6875 C2.66555577 6.96567265 3.60462463 11.88362365 5 17 C4.01 16.67 3.02 16.34 2 16 C-0.12310361 10.63636982 -0.23332331 5.71642118 0 0 Z " fill="#9DAEB6" transform="translate(466,498)"/>
<path d="M0 0 C0.33 0 0.66 0 1 0 C1 3.63 1 7.26 1 11 C-3.62 11 -8.24 11 -13 11 C-13 10.01 -13 9.02 -13 8 C-12.01 8 -11.02 8 -10 8 C-10 8.66 -10 9.32 -10 10 C-7.03 9.34 -4.06 8.68 -1 8 C-0.67 5.36 -0.34 2.72 0 0 Z " fill="#425358" transform="translate(488,620)"/>
<path d="M0 0 C0.66 0.33 1.32 0.66 2 1 C2.39190432 14.45538178 2.39190432 14.45538178 0 19 C-2.125 20.375 -2.125 20.375 -4 21 C-3.34 19.68 -2.68 18.36 -2 17 C-1.34 17 -0.68 17 0 17 C0 11.39 0 5.78 0 0 Z " fill="#405964" transform="translate(573,607)"/>
<path d="M0 0 C0.33 0 0.66 0 1 0 C1 6.6 1 13.2 1 20 C1.66 20 2.32 20 3 20 C2.42655063 22.86724686 2.1385485 23.8614515 0 26 C0 17.42 0 8.84 0 0 Z " fill="#495F6A" transform="translate(448,588)"/>
<path d="M0 0 C0.33 0 0.66 0 1 0 C1.63166196 15.13649208 1.63166196 15.13649208 -2 22 C-2.66 22.33 -3.32 22.66 -4 23 C-4.20086443 19.28400809 -4.1519437 18.22791555 -2 15 C-1.5437208 12.42286746 -1.17054724 9.90701715 -0.875 7.3125 C-0.78863281 6.61060547 -0.70226562 5.90871094 -0.61328125 5.18554688 C-0.40173125 3.45788855 -0.199914 1.7290434 0 0 Z " fill="#AEBFC5" transform="translate(565,498)"/>
<path d="M0 0 C0.99 0.33 1.98 0.66 3 1 C1.71283353 2.00578589 0.42011342 3.00446798 -0.875 4 C-1.59429687 4.556875 -2.31359375 5.11375 -3.0546875 5.6875 C-5 7 -5 7 -7 7 C-7.268125 7.61875 -7.53625 8.2375 -7.8125 8.875 C-9 11 -9 11 -12 13 C-10.32939586 6.6888288 -5.18555656 3.4570377 0 0 Z " fill="#BFCBCE" transform="translate(497,466)"/>
<path d="M0 0 C0.66 0 1.32 0 2 0 C2.268125 0.928125 2.53625 1.85625 2.8125 2.8125 C3.97120301 5.92270281 4.61407559 6.88937456 7 9 C8.34736973 10.65533995 9.68334336 12.32012773 11 14 C6.08307367 12.84307616 4.03767053 9.91389093 1.13671875 6.0703125 C0 4 0 4 0 0 Z " fill="#B6C4C4" transform="translate(352,445)"/>
<path d="M0 0 C2.475 0.99 2.475 0.99 5 2 C5 2.33 5 2.66 5 3 C7.97 3.33 10.94 3.66 14 4 C14 4.33 14 4.66 14 5 C12.10448978 5.05441656 10.2085208 5.09298035 8.3125 5.125 C7.25675781 5.14820313 6.20101562 5.17140625 5.11328125 5.1953125 C1.97748141 4.99858729 -0.17645373 4.33057654 -3 3 C-2.01 2.01 -1.02 1.02 0 0 Z " fill="#A8B2B7" transform="translate(588,432)"/>
<path d="M0 0 C-5.39460953 2.27141454 -10.26157749 2.20413361 -16 2 C-16 1.67 -16 1.34 -16 1 C-13.67190457 0.31526605 -11.33762223 -0.34853151 -9 -1 C-8.113125 -1.2475 -7.22625 -1.495 -6.3125 -1.75 C-3.56111988 -2.0474465 -2.30979283 -1.454314 0 0 Z " fill="#5D7279" transform="translate(392,562)"/>
<path d="M0 0 C0.70125 0.17144531 1.4025 0.34289062 2.125 0.51953125 C4 1.1875 4 1.1875 6 3.1875 C2.34475772 4.40591409 2.23784337 3.80642168 -1 2.1875 C-3.66709069 2.01999586 -3.66709069 2.01999586 -6 2.1875 C-6 1.5275 -6 0.8675 -6 0.1875 C-3.49981892 -1.06259054 -2.66064722 -0.67983449 0 0 Z " fill="#9BB0BA" transform="translate(664,517.8125)"/>
<path d="M0 0 C4.13621084 3.3810038 7.81316569 6.66590534 11 11 C10.01 11.495 10.01 11.495 9 12 C7.86966702 10.75482035 6.74594964 9.50363348 5.625 8.25 C4.99851562 7.55390625 4.37203125 6.8578125 3.7265625 6.140625 C2.12494817 4.15491312 1.03479932 2.32045907 0 0 Z " fill="#C7D0D1" transform="translate(472,444)"/>
<path d="M0 0 C0.33 0.66 0.66 1.32 1 2 C1.53625 1.649375 2.0725 1.29875 2.625 0.9375 C5.73274763 -0.28924249 7.79431703 0.27143569 11 1 C11 1.66 11 2.32 11 3 C7.37 3 3.74 3 0 3 C0 2.01 0 1.02 0 0 Z " fill="#D4E0E2" transform="translate(512,428)"/>
<path d="M0 0 C0.66 0.66 1.32 1.32 2 2 C-0.31 4.64 -2.62 7.28 -5 10 C-5.99 9.67 -6.98 9.34 -8 9 C-7.34 8.01 -6.68 7.02 -6 6 C-5.34 6.33 -4.68 6.66 -4 7 C-3.71125 6.401875 -3.4225 5.80375 -3.125 5.1875 C-2 3 -2 3 0 0 Z " fill="#1E2F33" transform="translate(572,642)"/>
<path d="M0 0 C0 3 0 3 -1 6 C-1.66 6 -2.32 6 -3 6 C-3.66 7.32 -4.32 8.64 -5 10 C-5.33 9.01 -5.66 8.02 -6 7 C-2.73239437 1.36619718 -2.73239437 1.36619718 0 0 Z " fill="#9DB3BA" transform="translate(551,514)"/>
<path d="M0 0 C0.8353125 0.37125 0.8353125 0.37125 1.6875 0.75 C-2.8125 3.75 -2.8125 3.75 -7.3125 6.75 C-7.3125 5.76 -7.3125 4.77 -7.3125 3.75 C-3.21493902 -0.34756098 -3.21493902 -0.34756098 0 0 Z " fill="#465861" transform="translate(370.3125,608.25)"/>
<path d="M0 0 C1.32 0 2.64 0 4 0 C4 4.29 4 8.58 4 13 C3.67 13 3.34 13 3 13 C3 9.7 3 6.4 3 3 C2.01 2.67 1.02 2.34 0 2 C0 1.34 0 0.68 0 0 Z " fill="#7898A3" transform="translate(484,565)"/>
<path d="M0 0 C1.80100099 1.63727363 2.95500875 2.9043936 4 5.125 C4.91202978 7.3530435 4.91202978 7.3530435 8 8 C6.68 8.33 5.36 8.66 4 9 C0 4.5 0 4.5 0 0 Z " fill="#A4B4B9" transform="translate(601,520)"/>
<path d="M0 0 C2 1 2 1 2.65234375 2.734375 C3.05603904 5.36519821 2.87521247 7.60931691 2.5625 10.25 C2.46066406 11.14203125 2.35882812 12.0340625 2.25390625 12.953125 C2.12822266 13.96632813 2.12822266 13.96632813 2 15 C1.67 15 1.34 15 1 15 C0.67 10.05 0.34 5.1 0 0 Z " fill="#B6C8D1" transform="translate(552,489)"/>
<path d="M0 0 C2.97 0 5.94 0 9 0 C9 0.66 9 1.32 9 2 C2.25 3.125 2.25 3.125 0 2 C0 1.34 0 0.68 0 0 Z " fill="#B1B6BA" transform="translate(512,485)"/>
<path d="M0 0 C-2.42130331 2.42130331 -3.80111377 2.52840504 -7.125 3.125 C-8.49011719 3.37636719 -8.49011719 3.37636719 -9.8828125 3.6328125 C-10.58148437 3.75398437 -11.28015625 3.87515625 -12 4 C-7.99899414 0.12023674 -5.51903037 -0.43286513 0 0 Z " fill="#74868C" transform="translate(538,544)"/>
<path d="M0 0 C-0.33 0.99 -0.66 1.98 -1 3 C-3.64 3.33 -6.28 3.66 -9 4 C-8.67 3.01 -8.34 2.02 -8 1 C-5.29120665 -0.35439668 -2.99066732 -0.06501451 0 0 Z " fill="#A4B6BC" transform="translate(378,516)"/>
<path d="M0 0 C0 0.99 0 1.98 0 3 C-4.75 2.25 -4.75 2.25 -7 0 C-4.3333581 -1.33332095 -2.83319697 -0.67102033 0 0 Z " fill="#73838E" transform="translate(499,543)"/>
<path d="M0 0 C4.875 3.625 4.875 3.625 6 7 C3.04590299 5.62845496 0.55991624 4.01136276 -2 2 C-1.34 1.34 -0.68 0.68 0 0 Z " fill="#C3D1D5" transform="translate(534,464)"/>
<path d="M0 0 C3.29456702 1.09818901 4.45501927 1.91003854 6 5 C6.66 5 7.32 5 8 5 C8 5.66 8 6.32 8 7 C4.66272214 5.82744291 2.22562513 4.81131596 0 2 C0 1.34 0 0.68 0 0 Z " fill="#BDC8CC" transform="translate(469,460)"/>
<path d="M0 0 C0.33 0 0.66 0 1 0 C1 2.31 1 4.62 1 7 C-0.32 6.34 -1.64 5.68 -3 5 C-2.03114628 3.31503702 -1.03013277 1.64821244 0 0 Z " fill="#CDDCDC" transform="translate(557,436)"/>
<path d="M0 0 C1.32 0 2.64 0 4 0 C5.8125 1.8125 5.8125 1.8125 7 4 C6.67 4.99 6.34 5.98 6 7 C4.02 4.69 2.04 2.38 0 0 Z " fill="#C4D0D4" transform="translate(547,433)"/>
<path d="M0 0 C0.66 1.65 1.32 3.3 2 5 C-3.75 3.25 -3.75 3.25 -6 1 C-3 0 -3 0 0 0 Z " fill="#CBD6D7" transform="translate(431,400)"/>
<path d="M0 0 C1.32 0 2.64 0 4 0 C4 0.66 4 1.32 4 2 C4.99 2.33 5.98 2.66 7 3 C6.67 3.66 6.34 4.32 6 5 C2.83884224 3.63016497 2.0072908 3.0109362 0 0 Z " fill="#2B3F45" transform="translate(636,622)"/>
<path d="M0 0 C0 0.66 0 1.32 0 2 C-2.66666667 3.33333333 -5.33333333 4.66666667 -8 6 C-7.25 3.5625 -7.25 3.5625 -6 1 C-3.84657966 0.12517299 -2.30989225 0 0 0 Z " fill="#94ACB5" transform="translate(379,528)"/>
<path d="M0 0 C0.66 0.66 1.32 1.32 2 2 C0.875 3.5 0.875 3.5 -1 5 C-4.1875 5.1875 -4.1875 5.1875 -7 5 C-6.34 4.34 -5.68 3.68 -5 3 C-3.68 3 -2.36 3 -1 3 C-0.67 2.01 -0.34 1.02 0 0 Z " fill="#C9D2D3" transform="translate(446,401)"/>
</svg>
