<svg xmlns="http://www.w3.org/2000/svg" viewBox="0 0 28 28" width="28" height="28" fill="none"><path fill="currentColor" d="M17.6066 8.58285C16.1086 8.58285 14.9127 9.45809 14.1322 9.45809C13.3139 9.45809 12.2313 8.63148 10.9347 8.63148C8.49253 8.63148 6 10.6008 6 14.2841C6 16.5937 6.91896 19.0128 8.05193 20.5809C9.03383 21.906 9.88985 23 11.1109 23C12.332 23 12.8733 22.2099 14.3839 22.2099C15.9072 22.2099 16.2596 22.9757 17.6066 22.9757C18.9284 22.9757 19.8222 21.7965 20.653 20.6296C21.5972 19.2924 21.9874 18.0038 22 17.9309C21.9245 17.9066 19.3816 16.9098 19.3816 14.0896C19.3816 11.6462 21.3832 10.5643 21.4965 10.4792C20.1747 8.63148 18.1605 8.58285 17.6066 8.58285ZM16.9017 7.02687C17.5059 6.32182 17.9465 5.34933 17.9465 4.37684C17.9465 4.24312 17.9339 4.1094 17.9087 4C16.9142 4.03647 15.7183 4.63212 15.0134 5.43442C14.4595 6.05438 13.9308 7.02687 13.9308 8.01152C13.9308 8.15739 13.9559 8.30326 13.9685 8.35189C14.0315 8.36404 14.1322 8.3762 14.2329 8.3762C15.1267 8.3762 16.247 7.80486 16.9017 7.02687Z"></path></svg>