<?xml version="1.0" standalone="no"?>
<!DOCTYPE svg PUBLIC "-//W3C//DTD SVG 20010904//EN"
 "http://www.w3.org/TR/2001/REC-SVG-20010904/DTD/svg10.dtd">
<svg version="1.0" xmlns="http://www.w3.org/2000/svg"
 width="500.000000pt" height="500.000000pt" viewBox="0 0 500.000000 500.000000"
 preserveAspectRatio="xMidYMid meet">

<g transform="translate(0.000000,500.000000) scale(0.100000,-0.100000)"
fill="#000000" stroke="none">
<path d="M0 2500 l0 -2500 2500 0 2500 0 0 2500 0 2500 -2500 0 -2500 0 0
-2500z m2493 771 c-3 -80 -6 -147 -7 -147 0 -1 -26 2 -56 7 -30 4 -148 8 -262
8 l-208 1 0 -145 0 -145 210 0 210 0 1 -27 c0 -21 6 -13 23 34 61 165 201 296
361 338 121 31 273 14 379 -43 117 -62 226 -203 261 -339 19 -73 19 -210 0
-292 -38 -160 -166 -311 -308 -362 -53 -19 -28 -29 87 -36 95 -6 131 3 178 44
16 14 20 9 53 -62 19 -43 35 -83 35 -90 0 -7 -24 -35 -54 -62 -95 -87 -198
-95 -360 -29 -160 64 -262 69 -331 14 -29 -23 -31 -21 -69 44 -16 26 -15 27
30 72 26 25 60 51 75 58 33 15 38 28 10 28 -10 0 -51 16 -91 36 -128 65 -228
188 -265 329 -8 32 -17 60 -20 63 -3 3 -97 7 -210 10 l-205 5 0 -207 0 -207
286 3 287 3 -7 -104 c-3 -57 -6 -121 -6 -143 l0 -38 -430 0 -430 0 0 763 0
762 420 1 419 0 -6 -145z"/>
<path d="M2820 2961 c-102 -33 -160 -108 -179 -232 -20 -120 21 -259 91 -313
49 -37 86 -48 163 -48 89 -1 144 21 193 78 49 54 72 126 72 219 0 186 -87 294
-244 301 -39 2 -82 0 -96 -5z"/>
</g>
</svg>
