<svg width="71" height="40" viewBox="0 0 71 40" fill="none" xmlns="http://www.w3.org/2000/svg">
<path d="M35.4528 27.135H27.6329L25.7824 32H21.4845L29.6625 11.1072H31.513C32.8064 11.1072 33.6819 11.7041 34.1395 12.898L41.5714 32H37.2734L35.4528 27.135ZM28.7372 23.6727H34.3485L31.5727 16.1513H31.5428L28.7372 23.6727ZM43.7641 11.1072H47.883V32H43.7641V11.1072Z" fill="black"/>
<path d="M4.7557 3H67.0829C68.0526 3 68.8386 3.78605 68.8386 4.75569V35.8315C68.8386 36.8012 68.0526 37.5872 67.0829 37.5872H4.7557C3.78605 37.5872 3 36.8012 3 35.8315V4.7557C3 3.78605 3.78605 3 4.7557 3Z" stroke="black" stroke-width="4.21367" stroke-linecap="round" stroke-linejoin="round"/>
</svg>
